HIERARCHY
ROOT Pelvis
{
	OFFSET 0.000000 0.000000 0.000000
	CHANNELS 6 Xposition Yposition Zposition Xrotation Yrotation Zrotation
	JOINT LeftUpLeg_virtual
	{
		OFFSET 0.000000 0.000000 0.000000
		CHANNELS 3 Xrotation Yrotation Zrotation
		JOINT LeftUpLeg
		{
			OFFSET 18.735201 -5.666702 -4.541200
			CHANNELS 3 Xrotation Yrotation Zrotation
			JOINT LeftLeg
			{
				OFFSET -0.021200 -31.938179 0.493100
				CHANNELS 3 Xrotation Yrotation Zrotation
				JOINT LeftFoot
				{
					OFFSET 0.021200 -31.938179 -4.336299
					CHANNELS 3 Xrotation Yrotation Zrotation
					JOINT LeftToeBase
					{
						OFFSET 0.943001 -26.722000 15.023500
						CHANNELS 3 Xrotation Yrotation Zrotation
						End Site
						{
							OFFSET 0 0 0
						}
					}
				}
			}
		}
	}
	JOINT RightUpLeg_virtual
	{
		OFFSET 0.000000 0.000000 0.000000
		CHANNELS 3 Xrotation Yrotation Zrotation
		JOINT RightUpLeg
		{
			OFFSET -18.735201 -5.666702 -4.541200
			CHANNELS 3 Xrotation Yrotation Zrotation
			JOINT RightLeg
			{
				OFFSET 0.018946 -31.938133 0.493100
				CHANNELS 3 Xrotation Yrotation Zrotation
				JOINT RightFoot
				{
					OFFSET -0.018946 -31.938126 -4.336299
					CHANNELS 3 Xrotation Yrotation Zrotation
					JOINT RightToeBase
					{
						OFFSET -0.943001 -26.722004 15.023500
						CHANNELS 3 Xrotation Yrotation Zrotation
						End Site
						{
							OFFSET 0 0 0
						}
					}
				}
			}
		}
	}
	JOINT Hips_virtual
	{
		OFFSET 0.000000 0.000000 0.000000
		CHANNELS 3 Xrotation Yrotation Zrotation
		JOINT Hips
		{
			OFFSET -0.000000 -0.000000 -0.000000
			CHANNELS 3 Xrotation Yrotation Zrotation
			JOINT Spine
			{
				OFFSET 0.000000 10.199997 -0.299500
				CHANNELS 3 Xrotation Yrotation Zrotation
				JOINT Spine1
				{
					OFFSET 0.000000 11.900002 -1.516600
					CHANNELS 3 Xrotation Yrotation Zrotation
					JOINT Spine2
					{
						OFFSET 0.000000 13.600006 -2.842500
						CHANNELS 3 Xrotation Yrotation Zrotation
						JOINT Neck_virtual
						{
							OFFSET 0.000000 0.000000 0.000000
							CHANNELS 3 Xrotation Yrotation Zrotation
							JOINT Neck
							{
								OFFSET 0.000000 9.624100 -2.890100
								CHANNELS 3 Xrotation Yrotation Zrotation
								JOINT Head
								{
									OFFSET 0.000000 14.068802 -1.351900
									CHANNELS 3 Xrotation Yrotation Zrotation
									End Site
									{
										OFFSET 0 0 0
									}
								}
							}
						}
						JOINT LeftShoulder_virtual
						{
							OFFSET 0.000000 0.000000 0.000000
							CHANNELS 3 Xrotation Yrotation Zrotation
							JOINT LeftShoulder
							{
								OFFSET 15.263000 10.923401 -0.547700
								CHANNELS 3 Xrotation Yrotation Zrotation
								JOINT LeftArm
								{
									OFFSET 25.438599 -2.830597 -13.032500
									CHANNELS 3 Xrotation Yrotation Zrotation
									JOINT LeftForeArm
									{
										OFFSET 29.960503 0.000000 0.000000
										CHANNELS 3 Xrotation Yrotation Zrotation
										JOINT LeftHand
										{
											OFFSET 27.849251 0.000000 0.000000
											CHANNELS 3 Xrotation Yrotation Zrotation
											End Site
											{
												OFFSET 0 0 0
											}
										}
									}
								}
							}
						}
						JOINT RightShoulder_virtual
						{
							OFFSET 0.000000 0.000000 0.000000
							CHANNELS 3 Xrotation Yrotation Zrotation
							JOINT RightShoulder
							{
								OFFSET -15.263000 10.923401 -0.547700
								CHANNELS 3 Xrotation Yrotation Zrotation
								JOINT RightArm
								{
									OFFSET -25.438599 -2.830597 -13.032500
									CHANNELS 3 Xrotation Yrotation Zrotation
									JOINT RightForeArm
									{
										OFFSET -29.960503 0.000000 0.000000
										CHANNELS 3 Xrotation Yrotation Zrotation
										JOINT RightHand
										{
											OFFSET -27.849251 0.000000 0.000000
											CHANNELS 3 Xrotation Yrotation Zrotation
											End Site
											{
												OFFSET 0 0 0
											}
										}
									}
								}
							}
						}
					}
				}
			}
		}
	}
}
MOTION
Frames: 9
Frame Time: 0.03333333
4.225072 89.540962 118.196671 0.000000 0.000000 0.000000 -3.457250 -12.941388 -3.604543 -48.237460 6.990900 15.022875 47.002521 -7.575677 4.591495 -4.200229 -10.330812 -3.372219 0.000000 0.000000 0.000000 6.193633 12.879362 8.643750 -19.133930 -3.386838 -3.218097 37.767411 1.915181 -3.984882 -16.498252 -0.296242 6.863583 0.000000 0.000000 0.000000 9.755421 9.261097 -0.605590 -12.526401 -13.181305 -7.460785 28.939272 7.805973 2.600731 15.977636 4.061915 1.077531 0.000000 0.000000 0.000000 9.886703 5.295952 -4.250711 0.719163 1.381667 -1.861345 0.000000 0.000000 0.000000 18.852511 4.849429 -0.076568 2.145711 -6.759029 -7.381414 -18.982981 -1.402105 -61.655407 -13.123866 -62.987929 -13.829274 0.000000 0.000000 0.000000 20.664732 8.092351 -0.368424 2.531650 12.756081 11.600755 -36.983671 15.877891 38.923588 -13.404001 75.930844 5.331395 0.000000 0.000000 0.000000 
3.881579 89.686234 117.277367 0.000000 0.000000 0.000000 -3.641511 -12.376269 -3.539633 -48.350380 7.038078 15.062876 46.368911 -6.778926 4.268673 -4.646730 -9.331788 -3.269058 0.000000 0.000000 0.000000 5.955504 12.776083 8.680208 -19.471556 -3.397589 -3.217929 37.753372 2.090029 -3.913300 -16.372585 -0.153190 7.053239 0.000000 0.000000 0.000000 9.234193 8.772281 -0.659470 -12.851899 -12.521167 -8.234031 28.445009 7.668712 2.619123 15.571090 3.990588 1.118658 0.000000 0.000000 0.000000 9.502927 5.194638 -4.301640 0.568305 1.349440 -1.904392 0.000000 0.000000 0.000000 18.500532 4.811415 -0.077949 2.213618 -6.377169 -7.430449 -19.025835 -0.630704 -61.781609 -13.243424 -62.289297 -13.913877 0.000000 0.000000 0.000000 20.262781 7.875701 -0.349432 2.606186 12.290823 11.521144 -37.755691 15.955749 38.037610 -13.480279 76.258830 4.916123 0.000000 0.000000 0.000000 
3.541255 89.783112 116.356148 0.000000 0.000000 0.000000 -3.884215 -11.846020 -3.498234 -48.567955 7.077954 15.105554 45.891741 -5.896322 3.901343 -5.017827 -8.223008 -3.198090 0.000000 0.000000 0.000000 5.693538 12.734579 8.766902 -19.836066 -3.401184 -3.163344 37.796334 2.208257 -3.895198 -16.198688 -0.024229 7.127612 0.000000 0.000000 0.000000 8.748085 8.336137 -0.697295 -13.098113 -11.740500 -8.868098 27.920152 7.478806 2.675898 15.158927 3.887799 1.172861 0.000000 0.000000 0.000000 9.100687 5.047102 -4.283035 0.409235 1.289640 -1.910565 0.000000 0.000000 0.000000 18.136316 4.732310 -0.067684 2.264303 -6.123963 -7.451808 -18.896120 0.142293 -61.895277 -13.214887 -61.476559 -13.882764 0.000000 0.000000 0.000000 19.860940 7.625526 -0.336217 2.687189 11.724411 11.403871 -38.642089 16.201262 37.024024 -13.576129 76.842770 4.448076 0.000000 0.000000 0.000000 
3.183410 89.830856 115.473694 0.000000 0.000000 0.000000 -4.218946 -11.011470 -3.398212 -48.917658 7.141656 15.230692 45.378513 -4.803776 3.521247 -5.397274 -6.900260 -3.003357 0.000000 0.000000 0.000000 5.399212 12.665642 8.890347 -20.249493 -3.418616 -3.078470 37.823436 2.229828 -3.930479 -16.027053 0.049213 7.054908 0.000000 0.000000 0.000000 8.284080 7.912341 -0.737275 -13.376178 -10.897408 -9.488410 27.384132 7.241478 2.756430 14.749409 3.756019 1.237462 0.000000 0.000000 0.000000 8.671763 4.853375 -4.225319 0.231007 1.203719 -1.895155 0.000000 0.000000 0.000000 17.754971 4.611980 -0.039993 2.287057 -5.974584 -7.418721 -18.752390 0.925024 -62.028500 -13.222118 -60.670234 -13.880904 0.000000 0.000000 0.000000 19.458261 7.326013 -0.315131 2.763119 11.001877 11.301246 -39.720207 16.556449 35.923981 -13.857954 77.697923 4.077101 0.000000 0.000000 0.000000 
2.831114 89.882019 114.609772 0.000000 0.000000 0.000000 -4.538419 -10.193209 -3.319943 -49.218630 7.214642 15.314150 45.047225 -3.692551 3.089094 -5.635982 -5.544558 -2.892124 0.000000 0.000000 0.000000 5.126744 12.643089 9.082853 -20.619410 -3.442059 -2.912100 37.946400 2.203079 -3.966136 -15.783555 0.086291 6.953884 0.000000 0.000000 0.000000 7.842683 7.442132 -0.772837 -13.646648 -10.097801 -10.109895 26.857031 6.945448 2.831659 14.352311 3.593440 1.294021 0.000000 0.000000 0.000000 8.242464 4.603111 -4.129075 0.050494 1.084759 -1.859221 0.000000 0.000000 0.000000 17.366769 4.458971 -0.004285 2.298543 -5.898477 -7.370070 -18.466782 1.668329 -62.165199 -13.129271 -59.833782 -13.810409 0.000000 0.000000 0.000000 19.101225 6.975319 -0.272961 2.895996 10.118971 11.260291 -40.774822 17.058771 34.780061 -14.096683 78.753140 3.643035 0.000000 0.000000 0.000000 
2.472193 89.923668 113.685333 0.000000 0.000000 0.000000 -4.542601 -9.677920 -3.255430 -49.107598 7.296106 15.323777 45.238013 -2.947866 2.435596 -5.526836 -4.464065 -3.403564 0.000000 0.000000 0.000000 4.870883 12.630719 9.282849 -20.973820 -3.468356 -2.740816 38.094011 2.101868 -4.044292 -15.533886 0.078398 6.740881 0.000000 0.000000 0.000000 7.429858 6.974996 -0.799932 -13.882536 -9.334465 -10.682219 26.339650 6.586099 2.920412 13.966419 3.395775 1.356090 0.000000 0.000000 0.000000 7.810072 4.310816 -3.992733 -0.132092 0.942780 -1.803086 0.000000 0.000000 0.000000 16.954073 4.273129 0.051956 2.284710 -5.916204 -7.265125 -18.171078 2.377775 -62.238576 -12.991573 -58.962844 -13.683908 0.000000 0.000000 0.000000 18.726067 6.580162 -0.221793 3.020299 9.105236 11.215633 -41.953423 17.576759 33.619516 -14.549413 79.933834 3.368408 0.000000 0.000000 0.000000 
2.161002 89.936623 112.764870 0.000000 0.000000 0.000000 -4.342875 -9.231568 -3.034361 -48.769245 7.338777 15.465292 45.931304 -2.242178 1.864135 -5.007067 -3.487074 -3.820707 0.000000 0.000000 0.000000 4.628853 12.662318 9.499219 -21.304535 -3.489085 -2.548225 38.249589 1.958283 -4.150601 -15.285779 0.045690 6.456212 0.000000 0.000000 0.000000 7.058405 6.505369 -0.811579 -14.026213 -8.590593 -11.163218 25.869439 6.175504 2.998203 13.610887 3.172632 1.409944 0.000000 0.000000 0.000000 7.372311 3.976140 -3.817440 -0.316000 0.778655 -1.727583 0.000000 0.000000 0.000000 16.541934 4.073136 0.123574 2.272673 -5.947705 -7.114354 -17.730836 3.056035 -62.349594 -12.754918 -57.999016 -13.516544 0.000000 0.000000 0.000000 18.329364 6.130507 -0.182788 3.136552 7.944675 11.068950 -43.238294 18.148612 32.504174 -15.352694 81.342813 3.404936 0.000000 0.000000 0.000000 
1.870526 89.927704 111.772827 0.000000 0.000000 0.000000 -4.204860 -9.177175 -2.845825 -48.548892 7.294613 15.597809 46.957428 -1.848442 1.271589 -4.347825 -2.816096 -4.495928 0.000000 0.000000 0.000000 4.382772 12.646181 9.689980 -21.664161 -3.519490 -2.397628 38.389608 1.759168 -4.299260 -15.073659 -0.021074 6.070762 0.000000 0.000000 0.000000 6.763551 6.128131 -0.825925 -13.952553 -7.724511 -11.616408 25.434161 5.748022 3.060428 13.277097 2.939793 1.455328 0.000000 0.000000 0.000000 6.963158 3.643657 -3.648250 -0.485891 0.620484 -1.655555 0.000000 0.000000 0.000000 16.128278 3.854502 0.188401 2.253601 -6.015605 -7.015266 -17.251728 3.687072 -62.488164 -12.506157 -57.060568 -13.364922 0.000000 0.000000 0.000000 17.866079 5.630233 -0.153552 3.193589 6.619700 10.829349 -44.649595 18.799978 31.532593 -16.940278 83.025628 4.214381 0.000000 0.000000 0.000000 
1.594474 89.894730 110.766228 0.000000 0.000000 0.000000 -3.876050 -9.634920 -2.744992 -48.117412 7.217751 15.625519 48.452788 -1.759002 0.732434 -3.399150 -2.491060 -5.306075 0.000000 0.000000 0.000000 4.148450 12.638392 9.859440 -22.019123 -3.545917 -2.274449 38.522701 1.549067 -4.452303 -14.892813 -0.101799 5.673738 0.000000 0.000000 0.000000 6.525057 5.813168 -0.842051 -13.669525 -6.843072 -12.025002 25.018515 5.310934 3.133613 12.957307 2.701658 1.516128 0.000000 0.000000 0.000000 6.541381 3.288428 -3.458217 -0.657718 0.450414 -1.573758 0.000000 0.000000 0.000000 15.671842 3.643710 0.283466 2.206354 -6.053058 -6.805082 -16.709170 4.219907 -62.630048 -12.196080 -56.134333 -13.190465 0.000000 0.000000 0.000000 17.349794 5.171753 -0.081129 3.167554 5.467429 10.758747 -46.199861 19.489248 30.724909 -20.281653 84.906915 6.771356 0.000000 0.000000 0.000000 
